# 3ds Max Wavefront OBJ Exporter v0.97b - (c)2007 guruware
# File Created: 30.12.2016 13:24:08

mtllib arena.mtl

#
# object Box001
#

v  -204.0223 0.0000 206.3741
v  -204.0223 0.0000 -204.8877
v  203.7591 0.0000 -204.8877
v  203.7591 0.0000 206.3741
v  -204.0223 12.3797 206.3741
v  203.7591 12.3797 206.3741
v  203.7591 12.3797 -204.8877
v  -204.0223 12.3797 -204.8877
v  203.7591 114.7220 206.3741
v  -204.0223 114.7220 206.3741
v  203.7591 114.7220 -204.8877
v  -204.0223 114.7220 -204.8877
# 12 vertices

vn 0.0000 -1.0000 -0.0000
vn 0.0000 1.0000 -0.0000
vn 0.0000 0.0000 1.0000
vn 1.0000 0.0000 -0.0000
vn 0.0000 0.0000 -1.0000
vn -1.0000 0.0000 -0.0000
# 6 vertex normals

g Box001
usemtl wire_008061138
f 1//1 2//1 3//1 
f 3//1 4//1 1//1 
f 5//2 6//2 7//2 
f 7//2 8//2 5//2 
f 1//3 4//3 9//3 
f 9//3 10//3 1//3 
f 4//4 3//4 11//4 
f 11//4 9//4 4//4 
f 3//5 2//5 12//5 
f 12//5 11//5 3//5 
f 2//6 1//6 10//6 
f 10//6 12//6 2//6 
f 10//5 9//5 6//5 
f 6//5 5//5 10//5 
f 9//6 11//6 7//6 
f 7//6 6//6 9//6 
f 11//3 12//3 8//3 
f 8//3 7//3 11//3 
f 12//4 10//4 5//4 
f 5//4 8//4 12//4 
# 20 faces

#
# object Box002
#

v  -147.3709 16.9487 -129.0786
v  -147.3709 16.9487 -146.9618
v  -127.6467 16.9487 -146.9618
v  -127.6467 16.9487 -129.0786
v  -147.3709 34.8743 -129.0786
v  -127.6467 34.8743 -129.0786
v  -127.6467 34.8743 -146.9618
v  -147.3709 34.8743 -146.9618
# 8 vertices

vn 0.0000 -1.0000 -0.0000
vn 0.0000 1.0000 -0.0000
vn 0.0000 0.0000 1.0000
vn 1.0000 0.0000 -0.0000
vn 0.0000 0.0000 -1.0000
vn -1.0000 0.0000 -0.0000
# 6 vertex normals

g Box002
usemtl wire_228214153
f 13//7 14//7 15//7 
f 15//7 16//7 13//7 
f 17//8 18//8 19//8 
f 19//8 20//8 17//8 
f 13//9 16//9 18//9 
f 18//9 17//9 13//9 
f 16//10 15//10 19//10 
f 19//10 18//10 16//10 
f 15//11 14//11 20//11 
f 20//11 19//11 15//11 
f 14//12 13//12 17//12 
f 17//12 20//12 14//12 
# 12 faces

#
# object Box003
#

v  -147.3709 16.9487 -18.2203
v  -147.3709 16.9487 -36.1035
v  -127.6467 16.9487 -36.1035
v  -127.6467 16.9487 -18.2203
v  -147.3709 34.8743 -18.2203
v  -127.6467 34.8743 -18.2203
v  -127.6467 34.8743 -36.1035
v  -147.3709 34.8743 -36.1035
# 8 vertices

vn 0.0000 -1.0000 -0.0000
vn 0.0000 1.0000 -0.0000
vn 0.0000 0.0000 1.0000
vn 1.0000 0.0000 -0.0000
vn 0.0000 0.0000 -1.0000
vn -1.0000 0.0000 -0.0000
# 6 vertex normals

g Box003
usemtl wire_228214153
f 21//13 22//13 23//13 
f 23//13 24//13 21//13 
f 25//14 26//14 27//14 
f 27//14 28//14 25//14 
f 21//15 24//15 26//15 
f 26//15 25//15 21//15 
f 24//16 23//16 27//16 
f 27//16 26//16 24//16 
f 23//17 22//17 28//17 
f 28//17 27//17 23//17 
f 22//18 21//18 25//18 
f 25//18 28//18 22//18 
# 12 faces

#
# object Box004
#

v  -147.3709 16.9487 125.4995
v  -147.3709 16.9487 107.6163
v  -127.6467 16.9487 107.6163
v  -127.6467 16.9487 125.4995
v  -147.3709 34.8743 125.4995
v  -127.6467 34.8743 125.4995
v  -127.6467 34.8743 107.6163
v  -147.3709 34.8743 107.6163
# 8 vertices

vn 0.0000 -1.0000 -0.0000
vn 0.0000 1.0000 -0.0000
vn 0.0000 0.0000 1.0000
vn 1.0000 0.0000 -0.0000
vn 0.0000 0.0000 -1.0000
vn -1.0000 0.0000 -0.0000
# 6 vertex normals

g Box004
usemtl wire_228214153
f 29//19 30//19 31//19 
f 31//19 32//19 29//19 
f 33//20 34//20 35//20 
f 35//20 36//20 33//20 
f 29//21 32//21 34//21 
f 34//21 33//21 29//21 
f 32//22 31//22 35//22 
f 35//22 34//22 32//22 
f 31//23 30//23 36//23 
f 36//23 35//23 31//23 
f 30//24 29//24 33//24 
f 33//24 36//24 30//24 
# 12 faces

#
# object Box005
#

v  -27.1955 16.9487 125.4995
v  -27.1955 16.9487 107.6163
v  -7.4712 16.9487 107.6163
v  -7.4712 16.9487 125.4995
v  -27.1955 34.8743 125.4995
v  -7.4712 34.8743 125.4995
v  -7.4712 34.8743 107.6163
v  -27.1955 34.8743 107.6163
# 8 vertices

vn 0.0000 -1.0000 -0.0000
vn 0.0000 1.0000 -0.0000
vn 0.0000 0.0000 1.0000
vn 1.0000 0.0000 -0.0000
vn 0.0000 0.0000 -1.0000
vn -1.0000 0.0000 -0.0000
# 6 vertex normals

g Box005
usemtl wire_228214153
f 37//25 38//25 39//25 
f 39//25 40//25 37//25 
f 41//26 42//26 43//26 
f 43//26 44//26 41//26 
f 37//27 40//27 42//27 
f 42//27 41//27 37//27 
f 40//28 39//28 43//28 
f 43//28 42//28 40//28 
f 39//29 38//29 44//29 
f 44//29 43//29 39//29 
f 38//30 37//30 41//30 
f 41//30 44//30 38//30 
# 12 faces

#
# object Box006
#

v  -27.1955 16.9487 -18.2203
v  -27.1955 16.9487 -36.1035
v  -7.4712 16.9487 -36.1035
v  -7.4712 16.9487 -18.2203
v  -27.1955 34.8743 -18.2203
v  -7.4712 34.8743 -18.2203
v  -7.4712 34.8743 -36.1035
v  -27.1955 34.8743 -36.1035
# 8 vertices

vn 0.0000 -1.0000 -0.0000
vn 0.0000 1.0000 -0.0000
vn 0.0000 0.0000 1.0000
vn 1.0000 0.0000 -0.0000
vn 0.0000 0.0000 -1.0000
vn -1.0000 0.0000 -0.0000
# 6 vertex normals

g Box006
usemtl wire_228214153
f 45//31 46//31 47//31 
f 47//31 48//31 45//31 
f 49//32 50//32 51//32 
f 51//32 52//32 49//32 
f 45//33 48//33 50//33 
f 50//33 49//33 45//33 
f 48//34 47//34 51//34 
f 51//34 50//34 48//34 
f 47//35 46//35 52//35 
f 52//35 51//35 47//35 
f 46//36 45//36 49//36 
f 49//36 52//36 46//36 
# 12 faces

#
# object Box007
#

v  -27.1955 16.9487 -129.0786
v  -27.1955 16.9487 -146.9618
v  -7.4712 16.9487 -146.9618
v  -7.4712 16.9487 -129.0786
v  -27.1955 34.8743 -129.0786
v  -7.4712 34.8743 -129.0786
v  -7.4712 34.8743 -146.9618
v  -27.1955 34.8743 -146.9618
# 8 vertices

vn 0.0000 -1.0000 -0.0000
vn 0.0000 1.0000 -0.0000
vn 0.0000 0.0000 1.0000
vn 1.0000 0.0000 -0.0000
vn 0.0000 0.0000 -1.0000
vn -1.0000 0.0000 -0.0000
# 6 vertex normals

g Box007
usemtl wire_228214153
f 53//37 54//37 55//37 
f 55//37 56//37 53//37 
f 57//38 58//38 59//38 
f 59//38 60//38 57//38 
f 53//39 56//39 58//39 
f 58//39 57//39 53//39 
f 56//40 55//40 59//40 
f 59//40 58//40 56//40 
f 55//41 54//41 60//41 
f 60//41 59//41 55//41 
f 54//42 53//42 57//42 
f 57//42 60//42 54//42 
# 12 faces

#
# object Box008
#

v  88.1095 16.9487 125.4995
v  88.1095 16.9487 107.6163
v  107.8337 16.9487 107.6163
v  107.8337 16.9487 125.4995
v  88.1095 34.8743 125.4995
v  107.8337 34.8743 125.4995
v  107.8337 34.8743 107.6163
v  88.1095 34.8743 107.6163
# 8 vertices

vn 0.0000 -1.0000 -0.0000
vn 0.0000 1.0000 -0.0000
vn 0.0000 0.0000 1.0000
vn 1.0000 0.0000 -0.0000
vn 0.0000 0.0000 -1.0000
vn -1.0000 0.0000 -0.0000
# 6 vertex normals

g Box008
usemtl wire_228214153
f 61//43 62//43 63//43 
f 63//43 64//43 61//43 
f 65//44 66//44 67//44 
f 67//44 68//44 65//44 
f 61//45 64//45 66//45 
f 66//45 65//45 61//45 
f 64//46 63//46 67//46 
f 67//46 66//46 64//46 
f 63//47 62//47 68//47 
f 68//47 67//47 63//47 
f 62//48 61//48 65//48 
f 65//48 68//48 62//48 
# 12 faces

#
# object Box009
#

v  88.1095 16.9487 -18.2203
v  88.1095 16.9487 -36.1035
v  107.8337 16.9487 -36.1035
v  107.8337 16.9487 -18.2203
v  88.1095 34.8743 -18.2203
v  107.8337 34.8743 -18.2203
v  107.8337 34.8743 -36.1035
v  88.1095 34.8743 -36.1035
# 8 vertices

vn 0.0000 -1.0000 -0.0000
vn 0.0000 1.0000 -0.0000
vn 0.0000 0.0000 1.0000
vn 1.0000 0.0000 -0.0000
vn 0.0000 0.0000 -1.0000
vn -1.0000 0.0000 -0.0000
# 6 vertex normals

g Box009
usemtl wire_228214153
f 69//49 70//49 71//49 
f 71//49 72//49 69//49 
f 73//50 74//50 75//50 
f 75//50 76//50 73//50 
f 69//51 72//51 74//51 
f 74//51 73//51 69//51 
f 72//52 71//52 75//52 
f 75//52 74//52 72//52 
f 71//53 70//53 76//53 
f 76//53 75//53 71//53 
f 70//54 69//54 73//54 
f 73//54 76//54 70//54 
# 12 faces

#
# object Box010
#

v  88.1095 16.9487 -129.0786
v  88.1095 16.9487 -146.9618
v  107.8337 16.9487 -146.9618
v  107.8337 16.9487 -129.0786
v  88.1095 34.8743 -129.0786
v  107.8337 34.8743 -129.0786
v  107.8337 34.8743 -146.9618
v  88.1095 34.8743 -146.9618
# 8 vertices

vn 0.0000 -1.0000 -0.0000
vn 0.0000 1.0000 -0.0000
vn 0.0000 0.0000 1.0000
vn 1.0000 0.0000 -0.0000
vn 0.0000 0.0000 -1.0000
vn -1.0000 0.0000 -0.0000
# 6 vertex normals

g Box010
usemtl wire_228214153
f 77//55 78//55 79//55 
f 79//55 80//55 77//55 
f 81//56 82//56 83//56 
f 83//56 84//56 81//56 
f 77//57 80//57 82//57 
f 82//57 81//57 77//57 
f 80//58 79//58 83//58 
f 83//58 82//58 80//58 
f 79//59 78//59 84//59 
f 84//59 83//59 79//59 
f 78//60 77//60 81//60 
f 81//60 84//60 78//60 
# 12 faces

#
# object Box011
#

v  36.8412 16.9487 54.7771
v  36.8412 16.9487 36.8938
v  56.5655 16.9487 36.8938
v  56.5655 16.9487 54.7771
v  36.8412 34.8743 54.7771
v  56.5655 34.8743 54.7771
v  56.5655 34.8743 36.8938
v  36.8412 34.8743 36.8938
# 8 vertices

vn 0.0000 -1.0000 -0.0000
vn 0.0000 1.0000 -0.0000
vn 0.0000 0.0000 1.0000
vn 1.0000 0.0000 -0.0000
vn 0.0000 0.0000 -1.0000
vn -1.0000 0.0000 -0.0000
# 6 vertex normals

g Box011
usemtl wire_228214153
f 85//61 86//61 87//61 
f 87//61 88//61 85//61 
f 89//62 90//62 91//62 
f 91//62 92//62 89//62 
f 85//63 88//63 90//63 
f 90//63 89//63 85//63 
f 88//64 87//64 91//64 
f 91//64 90//64 88//64 
f 87//65 86//65 92//65 
f 92//65 91//65 87//65 
f 86//66 85//66 89//66 
f 89//66 92//66 86//66 
# 12 faces

#
# object Box012
#

v  38.5987 16.9487 -72.8375
v  38.5987 16.9487 -90.7207
v  58.3230 16.9487 -90.7207
v  58.3230 16.9487 -72.8375
v  38.5987 34.8743 -72.8375
v  58.3230 34.8743 -72.8375
v  58.3230 34.8743 -90.7207
v  38.5987 34.8743 -90.7207
# 8 vertices

vn 0.0000 -1.0000 -0.0000
vn 0.0000 1.0000 -0.0000
vn 0.0000 0.0000 1.0000
vn 1.0000 0.0000 -0.0000
vn 0.0000 0.0000 -1.0000
vn -1.0000 0.0000 -0.0000
# 6 vertex normals

g Box012
usemtl wire_228214153
f 93//67 94//67 95//67 
f 95//67 96//67 93//67 
f 97//68 98//68 99//68 
f 99//68 100//68 97//68 
f 93//69 96//69 98//69 
f 98//69 97//69 93//69 
f 96//70 95//70 99//70 
f 99//70 98//70 96//70 
f 95//71 94//71 100//71 
f 100//71 99//71 95//71 
f 94//72 93//72 97//72 
f 97//72 100//72 94//72 
# 12 faces

#
# object Box013
#

v  -91.8748 16.9487 -67.2889
v  -91.8748 16.9487 -85.1721
v  -72.1506 16.9487 -85.1721
v  -72.1506 16.9487 -67.2889
v  -91.8748 34.8743 -67.2889
v  -72.1506 34.8743 -67.2889
v  -72.1506 34.8743 -85.1721
v  -91.8748 34.8743 -85.1721
# 8 vertices

vn 0.0000 -1.0000 -0.0000
vn 0.0000 1.0000 -0.0000
vn 0.0000 0.0000 1.0000
vn 1.0000 0.0000 -0.0000
vn 0.0000 0.0000 -1.0000
vn -1.0000 0.0000 -0.0000
# 6 vertex normals

g Box013
usemtl wire_228214153
f 101//73 102//73 103//73 
f 103//73 104//73 101//73 
f 105//74 106//74 107//74 
f 107//74 108//74 105//74 
f 101//75 104//75 106//75 
f 106//75 105//75 101//75 
f 104//76 103//76 107//76 
f 107//76 106//76 104//76 
f 103//77 102//77 108//77 
f 108//77 107//77 103//77 
f 102//78 101//78 105//78 
f 105//78 108//78 102//78 
# 12 faces

#
# object Box014
#

v  -81.6664 16.9487 60.7179
v  -81.6664 16.9487 42.8347
v  -61.9421 16.9487 42.8347
v  -61.9421 16.9487 60.7179
v  -81.6664 34.8743 60.7179
v  -61.9421 34.8743 60.7179
v  -61.9421 34.8743 42.8347
v  -81.6664 34.8743 42.8347
# 8 vertices

vn 0.0000 -1.0000 -0.0000
vn 0.0000 1.0000 -0.0000
vn 0.0000 0.0000 1.0000
vn 1.0000 0.0000 -0.0000
vn 0.0000 0.0000 -1.0000
vn -1.0000 0.0000 -0.0000
# 6 vertex normals

g Box014
usemtl wire_228214153
f 109//79 110//79 111//79 
f 111//79 112//79 109//79 
f 113//80 114//80 115//80 
f 115//80 116//80 113//80 
f 109//81 112//81 114//81 
f 114//81 113//81 109//81 
f 112//82 111//82 115//82 
f 115//82 114//82 112//82 
f 111//83 110//83 116//83 
f 116//83 115//83 111//83 
f 110//84 109//84 113//84 
f 113//84 116//84 110//84 
# 12 faces

